<mxfile host="app.diagrams.net" agent="Mozilla/5.0 (Macintosh; Intel Mac OS X 10_15_7) AppleWebKit/537.36 (KHTML, like Gecko) Chrome/131.0.0.0 Safari/537.36" version="26.0.10">
  <diagram name="Page-1" id="v34rLmqsLWGF5qXHPuqk">
    <mxGraphModel dx="953" dy="499" grid="1" gridSize="10" guides="1" tooltips="1" connect="1" arrows="1" fold="1" page="1" pageScale="1" pageWidth="850" pageHeight="1100" math="0" shadow="0">
      <root>
        <mxCell id="0" />
        <mxCell id="1" parent="0" />
        <mxCell id="vU9a_HClNHPREHuxajIK-3" value="" style="edgeStyle=orthogonalEdgeStyle;rounded=0;orthogonalLoop=1;jettySize=auto;html=1;" edge="1" parent="1" source="vU9a_HClNHPREHuxajIK-1" target="vU9a_HClNHPREHuxajIK-2">
          <mxGeometry relative="1" as="geometry" />
        </mxCell>
        <mxCell id="vU9a_HClNHPREHuxajIK-1" value="com&lt;div&gt;&lt;br&gt;&lt;/div&gt;" style="shape=folder;fontStyle=1;spacingTop=10;tabWidth=40;tabHeight=14;tabPosition=left;html=1;whiteSpace=wrap;" vertex="1" parent="1">
          <mxGeometry x="330" y="40" width="70" height="50" as="geometry" />
        </mxCell>
        <mxCell id="vU9a_HClNHPREHuxajIK-5" value="" style="edgeStyle=orthogonalEdgeStyle;rounded=0;orthogonalLoop=1;jettySize=auto;html=1;" edge="1" parent="1" source="vU9a_HClNHPREHuxajIK-2" target="vU9a_HClNHPREHuxajIK-4">
          <mxGeometry relative="1" as="geometry" />
        </mxCell>
        <mxCell id="vU9a_HClNHPREHuxajIK-2" value="&lt;div&gt;example&lt;/div&gt;" style="shape=folder;fontStyle=1;spacingTop=10;tabWidth=40;tabHeight=14;tabPosition=left;html=1;whiteSpace=wrap;" vertex="1" parent="1">
          <mxGeometry x="330" y="170" width="70" height="50" as="geometry" />
        </mxCell>
        <mxCell id="vU9a_HClNHPREHuxajIK-7" value="" style="edgeStyle=orthogonalEdgeStyle;rounded=0;orthogonalLoop=1;jettySize=auto;html=1;" edge="1" parent="1" source="vU9a_HClNHPREHuxajIK-4" target="vU9a_HClNHPREHuxajIK-6">
          <mxGeometry relative="1" as="geometry" />
        </mxCell>
        <mxCell id="vU9a_HClNHPREHuxajIK-4" value="&lt;div&gt;librarysystem&lt;/div&gt;" style="shape=folder;fontStyle=1;spacingTop=10;tabWidth=40;tabHeight=14;tabPosition=left;html=1;whiteSpace=wrap;" vertex="1" parent="1">
          <mxGeometry x="320" y="310" width="90" height="50" as="geometry" />
        </mxCell>
        <mxCell id="vU9a_HClNHPREHuxajIK-6" value="&lt;div&gt;controller&lt;/div&gt;" style="shape=folder;fontStyle=1;spacingTop=10;tabWidth=40;tabHeight=14;tabPosition=left;html=1;whiteSpace=wrap;" vertex="1" parent="1">
          <mxGeometry x="270" y="440" width="90" height="50" as="geometry" />
        </mxCell>
        <mxCell id="vU9a_HClNHPREHuxajIK-8" value="config" style="shape=folder;fontStyle=1;spacingTop=10;tabWidth=40;tabHeight=14;tabPosition=left;html=1;whiteSpace=wrap;" vertex="1" parent="1">
          <mxGeometry x="400" y="440" width="70" height="50" as="geometry" />
        </mxCell>
        <mxCell id="vU9a_HClNHPREHuxajIK-10" value="domain" style="shape=folder;fontStyle=1;spacingTop=10;tabWidth=40;tabHeight=14;tabPosition=left;html=1;whiteSpace=wrap;" vertex="1" parent="1">
          <mxGeometry x="500" y="440" width="70" height="50" as="geometry" />
        </mxCell>
        <mxCell id="vU9a_HClNHPREHuxajIK-12" value="respository" style="shape=folder;fontStyle=1;spacingTop=10;tabWidth=40;tabHeight=14;tabPosition=left;html=1;whiteSpace=wrap;" vertex="1" parent="1">
          <mxGeometry x="590" y="440" width="70" height="50" as="geometry" />
        </mxCell>
        <mxCell id="vU9a_HClNHPREHuxajIK-15" value="" style="endArrow=classic;html=1;rounded=0;entryX=0;entryY=0;entryDx=20;entryDy=0;entryPerimeter=0;exitX=0.611;exitY=1.03;exitDx=0;exitDy=0;exitPerimeter=0;" edge="1" parent="1" source="vU9a_HClNHPREHuxajIK-4" target="vU9a_HClNHPREHuxajIK-8">
          <mxGeometry width="50" height="50" relative="1" as="geometry">
            <mxPoint x="400" y="430" as="sourcePoint" />
            <mxPoint x="450" y="380" as="targetPoint" />
          </mxGeometry>
        </mxCell>
        <mxCell id="vU9a_HClNHPREHuxajIK-16" value="" style="endArrow=classic;html=1;rounded=0;entryX=0;entryY=0;entryDx=20;entryDy=0;entryPerimeter=0;exitX=0.667;exitY=1.05;exitDx=0;exitDy=0;exitPerimeter=0;" edge="1" parent="1" source="vU9a_HClNHPREHuxajIK-4">
          <mxGeometry width="50" height="50" relative="1" as="geometry">
            <mxPoint x="470" y="362" as="sourcePoint" />
            <mxPoint x="515" y="440" as="targetPoint" />
          </mxGeometry>
        </mxCell>
        <mxCell id="vU9a_HClNHPREHuxajIK-17" value="" style="endArrow=classic;html=1;rounded=0;exitX=0.667;exitY=1.05;exitDx=0;exitDy=0;exitPerimeter=0;" edge="1" parent="1">
          <mxGeometry width="50" height="50" relative="1" as="geometry">
            <mxPoint x="400" y="360" as="sourcePoint" />
            <mxPoint x="600" y="437" as="targetPoint" />
          </mxGeometry>
        </mxCell>
        <mxCell id="vU9a_HClNHPREHuxajIK-18" value="service" style="shape=folder;fontStyle=1;spacingTop=10;tabWidth=40;tabHeight=14;tabPosition=left;html=1;whiteSpace=wrap;" vertex="1" parent="1">
          <mxGeometry x="160" y="440" width="70" height="50" as="geometry" />
        </mxCell>
        <mxCell id="vU9a_HClNHPREHuxajIK-19" value="" style="endArrow=classic;html=1;rounded=0;exitX=0;exitY=0;exitDx=0;exitDy=41;exitPerimeter=0;" edge="1" parent="1" source="vU9a_HClNHPREHuxajIK-4">
          <mxGeometry width="50" height="50" relative="1" as="geometry">
            <mxPoint x="150" y="352" as="sourcePoint" />
            <mxPoint x="190" y="440" as="targetPoint" />
          </mxGeometry>
        </mxCell>
      </root>
    </mxGraphModel>
  </diagram>
</mxfile>
